<svg xmlns="http://www.w3.org/2000/svg" viewBox="0 0 32 32">
  <!-- Top rim -->
  <rect x="6" y="2" width="20" height="3" fill="#2d1b4e"/>
  
  <!-- Top section of hourglass -->
  <rect x="8" y="5" width="16" height="2" fill="#7c3aed"/>
  <rect x="9" y="7" width="14" height="2" fill="#7c3aed"/>
  <rect x="10" y="9" width="12" height="2" fill="#7c3aed"/>
  <rect x="11" y="11" width="10" height="2" fill="#7c3aed"/>
  <rect x="12" y="13" width="8" height="2" fill="#7c3aed"/>
  
  <!-- Center (narrowest part) -->
  <rect x="14" y="15" width="4" height="2" fill="#2d1b4e"/>
  
  <!-- Bottom section of hourglass -->
  <rect x="12" y="17" width="8" height="2" fill="#7c3aed"/>
  <rect x="11" y="19" width="10" height="2" fill="#7c3aed"/>
  <rect x="10" y="21" width="12" height="2" fill="#7c3aed"/>
  
  <!-- Green sand in bottom (triangle shape) -->
  <rect x="13" y="23" width="6" height="1" fill="#22c55e"/>
  <rect x="12" y="24" width="8" height="1" fill="#22c55e"/>
  <rect x="11" y="25" width="10" height="1" fill="#22c55e"/>
  
  <!-- More bottom purple -->
  <rect x="9" y="26" width="14" height="1" fill="#7c3aed"/>
  <rect x="8" y="27" width="16" height="1" fill="#7c3aed"/>
  
  <!-- Bottom rim -->
  <rect x="6" y="28" width="20" height="3" fill="#2d1b4e"/>
  
  <!-- Green sand dots in top section -->
  <rect x="14" y="7" width="2" height="1" fill="#22c55e"/>
  <rect x="16" y="7" width="2" height="1" fill="#22c55e"/>
  <rect x="15" y="9" width="2" height="1" fill="#22c55e"/>
  <rect x="17" y="9" width="2" height="1" fill="#22c55e"/>
  <rect x="14" y="11" width="2" height="1" fill="#22c55e"/>
  <rect x="16" y="11" width="2" height="1" fill="#22c55e"/>
  <rect x="18" y="11" width="2" height="1" fill="#22c55e"/>
</svg>
